<svg width="1329" height="1037" viewBox="0 0 1329 1037" fill="none" xmlns="http://www.w3.org/2000/svg">
<path d="M1086.18 253.322C1052.09 325.503 1048.47 406.479 1101.26 406.479C1122.68 406.479 1135.35 397.684 1141.69 377.364C1171.85 283.65 1224.95 251.806 1290.41 251.806C1378.49 251.806 1388.75 300.027 1388.75 327.929C1388.75 363.413 1357.38 381.004 1276.53 402.536C1167.03 434.078 1064.76 487.455 1064.76 605.128C1064.76 722.802 1178.19 786.188 1307.9 786.188C1386.03 786.188 1462.96 763.441 1508.21 729.171C1542.3 658.203 1545.92 577.227 1493.13 577.227C1471.71 577.227 1457.83 587.235 1451.5 607.555C1421.33 702.482 1365.82 734.326 1306.7 734.326C1252.4 734.326 1232.49 705.211 1232.49 667.301C1232.49 621.809 1274.12 592.694 1322.08 579.956C1412.88 555.997 1560.4 520.513 1560.4 382.217C1560.4 253.019 1423.14 196.002 1288.3 196.002C1205.04 196.002 1132.03 221.477 1086.78 253.019L1086.18 253.322Z" fill="white" fill-opacity="0.08"/>
<path d="M767.499 722.226L842.487 1002.61C857.845 1060.04 828.744 1078.49 782.846 1086.69L795.618 1134.44L1002.93 1114.47C1045.96 1109.56 1060.55 1085.88 1053.34 1058.93L1048.4 1040.47C1040.57 1011.17 1062.11 1004.15 1085.18 1021.53C1130.09 1052.84 1180.33 1074.88 1243.56 1057.97C1319.04 1037.78 1369.2 971.94 1349.21 897.229C1333.86 839.804 1281.18 803.975 1212.99 822.213C1091.17 854.791 1209.98 967.43 1137.13 986.914C1086.13 1000.55 1023.95 949.057 981.093 788.794L950.299 673.651C932.591 607.437 948.423 583.738 1010.64 563.016L997.871 515.26L653.41 607.384L666.183 655.14C724.32 643.673 749.869 656.304 767.578 722.519L767.499 722.226Z" fill="white" fill-opacity="0.08"/>
<path d="M147.708 1016.94C147.708 1224.69 316.64 1317.19 472.902 1317.19C606.539 1317.19 714.836 1250.16 714.836 1138.55C714.836 1026.95 605.332 1018.15 494.32 1009.36L395.978 1001.77C374.559 1000.56 363.096 990.25 363.096 961.135C363.096 867.421 463.852 825.568 547.111 825.568C591.154 825.568 651.788 838.306 697.038 890.167L734.746 855.896C710.915 806.461 608.651 726.698 461.137 726.698C303.668 726.698 147.406 817.986 147.406 1016.94H147.708ZM395.978 1051.21L441.227 1056.37C528.106 1065.16 545.904 1087.91 545.904 1137.34C545.904 1198.3 520.565 1258.96 455.104 1258.96C373.051 1258.96 354.348 1166.46 354.348 1105.8C354.348 1069.1 363.096 1050 395.978 1051.21Z" fill="white" fill-opacity="0.08"/>
<path d="M-270.109 738.351L-218.3 831.306L-365.985 957.836C-436.881 1016.5 -462.13 1035.46 -519.911 1045.18L-531 1092.11L-223.035 1164.88L-211.946 1117.95C-263.931 1091.33 -241.662 1067.92 -176.92 1002.51L-145.556 968.161C-69.3009 1111.14 -71.6247 1131.47 -139.725 1135.02L-150.814 1181.94L71.1325 1234.39L82.2212 1187.46C18.196 1151.45 -20.6498 1096.77 -57.1245 1032.06L-106.318 943.776L39.9261 812.854C108.18 753.566 136.071 735.225 193.573 726.686L204.941 678.576L-101.557 606.156L-112.924 654.266C-61.8347 679.426 -74.9738 707.485 -148.846 768.25L-186.921 798.208C-263.177 655.225 -257.062 639.842 -187.494 636.647L-176.126 588.537L-398.073 536.094L-409.44 584.205C-345.415 620.212 -305.395 675.166 -269.815 738.421L-270.109 738.351Z" fill="white" fill-opacity="0.08"/>
<path d="M1086.18 607.866C1052.09 535.685 1048.47 454.708 1101.26 454.708C1122.68 454.708 1135.35 463.504 1141.69 483.823C1171.85 577.537 1224.95 609.382 1290.41 609.382C1378.49 609.382 1388.75 561.16 1388.75 533.258C1388.75 497.774 1357.38 480.184 1276.53 458.651C1167.03 427.11 1064.76 373.732 1064.76 256.059C1064.76 138.386 1178.19 75 1307.9 75C1386.03 75 1462.96 97.7461 1508.21 132.017C1542.3 202.985 1545.92 283.961 1493.13 283.961C1471.71 283.961 1457.83 273.953 1451.5 253.633C1421.33 158.706 1365.82 126.861 1306.7 126.861C1252.4 126.861 1232.49 155.976 1232.49 193.886C1232.49 239.379 1274.12 268.494 1322.08 281.231C1412.88 305.191 1560.4 340.675 1560.4 478.971C1560.4 608.169 1423.14 665.186 1288.3 665.186C1205.04 665.186 1132.03 639.71 1086.78 608.169L1086.18 607.866Z" fill="#5086FF"/>
<path d="M767.499 138.962L842.487 -141.424C857.845 -198.849 828.744 -217.306 782.846 -225.5L795.618 -273.256L1002.93 -253.287C1045.96 -248.373 1060.55 -224.693 1053.34 -197.738L1048.4 -179.28C1040.57 -149.982 1062.11 -142.964 1085.18 -160.34C1130.09 -191.653 1180.33 -213.693 1243.56 -196.78C1319.04 -176.594 1369.2 -110.753 1349.21 -36.0418C1333.86 21.3831 1281.18 57.2121 1212.99 38.9744C1091.17 6.39604 1209.98 -106.242 1137.13 -125.727C1086.13 -139.366 1023.95 -87.869 981.093 72.3935L950.299 187.536C932.591 253.751 948.423 277.449 1010.64 298.171L997.871 345.927L653.41 253.804L666.183 206.047C724.32 217.515 749.869 204.883 767.578 138.669L767.499 138.962Z" fill="#42C38D"/>
<path d="M147.708 -155.751C147.708 -363.499 316.64 -456 472.902 -456C606.539 -456 714.836 -388.975 714.836 -277.367C714.836 -165.76 605.332 -156.964 494.32 -148.169L395.978 -140.587C374.559 -139.374 363.096 -129.063 363.096 -99.9475C363.096 -6.23358 463.852 35.6193 547.111 35.6193C591.154 35.6193 651.788 22.8814 697.038 -28.9797L734.746 5.29117C710.915 54.726 608.651 134.489 461.137 134.489C303.668 134.489 147.406 43.2013 147.406 -155.751H147.708ZM395.978 -190.022L441.227 -195.178C528.106 -203.973 545.904 -226.719 545.904 -276.154C545.904 -337.114 520.565 -397.77 455.104 -397.77C373.051 -397.77 354.348 -305.269 354.348 -244.613C354.348 -207.916 363.096 -188.809 395.978 -190.022Z" fill="#8364FF"/>
<path d="M-270.109 122.836L-218.3 29.8818L-365.985 -96.6482C-436.881 -155.312 -462.13 -174.277 -519.911 -183.996L-531 -230.926L-223.035 -303.693L-211.946 -256.763C-263.931 -230.145 -241.662 -206.737 -176.92 -141.321L-145.556 -106.973C-69.3009 -249.956 -71.6247 -270.286 -139.725 -273.828L-150.814 -320.757L71.1325 -373.199L82.2212 -326.27C18.196 -290.262 -20.6498 -235.585 -57.1245 -170.873L-106.318 -82.5882L39.9261 48.3339C108.18 107.622 136.071 125.962 193.573 134.501L204.941 182.611L-101.557 255.031L-112.924 206.921C-61.8347 181.761 -74.9738 153.703 -148.846 92.9375L-186.921 62.98C-263.177 205.962 -257.062 221.346 -187.494 224.541L-176.126 272.651L-398.073 325.093L-409.44 276.983C-345.415 240.976 -305.395 186.021 -269.815 122.767L-270.109 122.836Z" fill="#5086FF"/>
</svg>
