<svg width="255" height="119" viewBox="0 0 255 119" fill="none" xmlns="http://www.w3.org/2000/svg">
<g clip-path="url(#clip0_1_3022)">
<path d="M82.5716 35.2089C82.5689 36.0997 82.6345 36.9894 82.7677 37.8702C85.7207 33.8222 87.4992 29.0339 87.9061 24.0352C87.9672 23.3448 88.002 22.6587 88.0064 21.9683C86.2588 23.6952 84.8767 25.758 83.9429 28.0331C83.009 30.3082 82.5426 32.7489 82.5716 35.2089ZM109.833 35.7202C107.039 41.2437 102.973 44.4599 98.7365 44.4599C94.5003 44.4599 92.0422 41.838 91.8722 36.9001C101.295 34.8725 107.218 29.9433 107.218 23.8254C107.218 19.9188 104.337 17.3712 99.338 17.3712C96.049 17.3613 92.8356 18.36 90.1289 20.2334C90.2041 21.566 90.1837 22.9022 90.0679 24.2318C89.5688 30.2309 87.2493 35.9329 83.4215 40.5707C85.1648 45.6966 89.6146 48.8036 95.6247 48.8036C102.742 48.8036 109.013 44.1322 111.977 36.7384C112.561 35.2963 110.53 34.4442 109.833 35.7202ZM99.6866 20.7709C100.785 20.7709 101.378 21.5356 101.378 22.7242C101.378 27.3956 97.5685 31.9009 91.9768 34.1077C92.5695 27.1422 96.1259 20.7709 99.6866 20.7709ZM82.5716 35.1914C82.5689 36.0823 82.6345 36.972 82.7677 37.8527C85.7177 33.8096 87.496 29.0278 87.9061 24.0352C87.9672 23.3448 88.002 22.6587 88.0064 21.9683C86.2588 23.6952 84.8767 25.758 83.9429 28.0331C83.009 30.3082 82.5426 32.7489 82.5716 35.2089V35.1914ZM82.5716 35.1914C82.5689 36.0823 82.6345 36.972 82.7677 37.8527C85.7177 33.8096 87.496 29.0278 87.9061 24.0352C87.9672 23.3448 88.002 22.6587 88.0064 21.9683C86.2588 23.6952 84.8767 25.758 83.9429 28.0331C83.009 30.3082 82.5426 32.7489 82.5716 35.2089V35.1914Z" fill="#5086FF"/>
<path d="M117.471 34.1898C113.74 31.3013 112.219 28.8367 112.219 25.45C112.219 20.7787 116.708 17.3789 122.975 17.3789C128.484 17.3789 132.297 20.0008 132.297 23.7502C132.307 24.3288 132.198 24.9034 131.979 25.4387C131.76 25.9741 131.434 26.4591 131.022 26.8642C130.61 27.2694 130.12 27.5862 129.581 27.7953C129.043 28.0044 128.468 28.1015 127.891 28.0807C125.943 28.0807 124.5 26.9795 124.165 25.2796C125.18 25.1092 125.856 24.091 125.856 22.9854C125.856 21.6264 124.84 20.6913 123.315 20.6913C121.537 20.6913 120.181 21.8799 120.181 23.4967C120.181 25.1136 121.197 26.2978 124.67 28.8454C129.499 32.4156 131.448 35.3041 131.448 39.2107C131.448 44.7342 126.196 48.8244 119.079 48.8244C112.472 48.8244 107.812 45.4247 107.812 40.4998C107.812 37.2705 109.421 34.299 113.317 34.299C116.621 34.299 119.249 37.2705 118.146 40.0716C116.198 39.4773 114.42 40.6659 114.42 42.4532C114.42 44.153 115.945 45.3416 118.063 45.3416C120.604 45.3416 122.552 43.6418 122.552 41.2646C122.552 38.8874 121.454 37.2487 117.471 34.1898Z" fill="#5086FF"/>
<path d="M133.906 38.6075L137.284 22.6356C137.72 20.4507 137.197 19.2403 135.676 19.2403L135.589 18.8033C137.293 17.9128 139.176 17.4198 141.097 17.3612C144.907 17.3612 146.602 19.5462 145.756 23.3916L142.27 39.7873C141.76 42.1645 142.44 43.694 144.048 43.694C146.419 43.694 148.624 40.9759 150.32 36.1341C150.825 34.7751 152.935 35.199 152.603 36.7284C149.923 45.2322 146.436 48.8024 140.683 48.8024C135.179 48.8024 132.551 44.8913 133.906 38.6075ZM143.991 14.4815C143.003 14.4815 142.036 14.1875 141.214 13.6368C140.392 13.086 139.751 12.3032 139.373 11.3874C138.995 10.4715 138.896 9.4637 139.088 8.49142C139.281 7.51915 139.757 6.62605 140.457 5.92508C141.156 5.22411 142.046 4.74674 143.016 4.55334C143.986 4.35994 144.991 4.4592 145.904 4.83857C146.818 5.21793 147.599 5.86036 148.148 6.68462C148.697 7.50887 148.99 8.47794 148.99 9.46926C148.997 10.1293 148.872 10.7839 148.623 11.3949C148.374 12.0059 148.006 12.561 147.54 13.0278C147.075 13.4945 146.521 13.8634 145.912 14.113C145.303 14.3627 144.65 14.4879 143.991 14.4815Z" fill="#5086FF"/>
<path d="M154.92 60.0172C154.915 60.3383 154.976 60.6571 155.099 60.9536C155.221 61.2502 155.404 61.5183 155.634 61.7412C155.865 61.9642 156.139 62.1372 156.439 62.2496C156.739 62.362 157.058 62.4113 157.378 62.3944C160.599 62.3944 163.223 58.4878 164.748 51.3518L165.681 46.8509C164.129 48.1274 162.18 48.8185 160.172 48.8042C153.818 48.8042 149.926 43.7002 149.926 36.0617C149.926 25.3555 157.043 17.3718 166.701 17.3718C168.732 17.3929 170.688 18.1468 172.21 19.4955C173.312 18.1365 175.09 17.3718 177.291 17.3718C178.38 17.3597 179.465 17.5069 180.512 17.8088L173.735 49.665C171.7 59.6065 165.093 65.8073 156.79 65.8073C151.281 65.8073 147.555 62.661 147.555 58.077C147.555 54.2534 150.348 51.3649 154.092 51.3649C157.736 51.3649 159.758 54.2534 158.751 57.6488C156.616 57.0414 154.92 58.0639 154.92 60.0172ZM159.244 36.8264C159.244 41.2443 160.682 43.875 162.97 43.875C164.918 43.875 166.696 41.9217 167.376 38.8628L170.087 26.1202C170.68 22.9783 169.651 20.9376 167.546 20.9376C163.31 20.9376 159.244 28.7553 159.244 36.8264Z" fill="#5086FF"/>
<path d="M189.232 43.533C188.797 45.7441 189.32 46.9327 190.845 46.9327L190.928 47.3697C189.226 48.2634 187.344 48.758 185.423 48.8161C181.61 48.8161 179.914 46.605 180.76 42.5279L184.996 22.5664C185.432 20.4426 184.831 19.254 183.388 19.254L183.305 18.8171C185.008 17.926 186.89 17.433 188.81 17.375C191.86 17.375 193.469 18.734 193.639 21.2817C196.014 18.6597 198.808 17.375 202.028 17.375C207.027 17.375 209.738 21.1112 208.566 26.6347L205.755 39.7967C205.245 42.1739 205.925 43.7034 207.533 43.7034C209.908 43.7034 212.109 40.9853 213.805 36.1435C214.314 34.7845 216.42 35.2084 216.093 36.7378C213.382 45.2328 209.908 48.803 204.147 48.803C198.638 48.803 196.014 44.8701 197.369 38.6081L199.91 26.6304C200.503 23.9123 199.653 22.2124 197.705 22.2124C195.504 22.2124 193.556 24.4192 192.623 27.7359L189.232 43.533Z" fill="#5086FF"/>
<path d="M66.2458 0.144205C65.1563 0.0480685 64.0667 0 63.0251 0C50.0199 0 39.7997 7.08791 38.9193 17.1867C38.4835 22.3475 41.2946 26.005 46.019 26.4202C46.3066 26.4464 46.5855 26.4595 46.8645 26.4595C50.9438 26.4595 54.1603 23.807 54.4915 20.0008C54.0447 20.0729 53.593 20.1094 53.1404 20.1101C52.9254 20.1101 52.7206 20.1014 52.5259 20.0839C49.6581 19.8348 47.9105 17.462 48.1676 14.2457C48.7211 7.87449 54.8445 3.39101 62.55 3.39101C63.1384 3.39101 63.7311 3.41723 64.3326 3.46967C73.6157 4.28683 78.7716 11.4752 77.8433 22.2207C76.7712 34.5175 68.1504 45.5077 59.8653 45.5077C59.5951 45.5077 59.3249 45.5077 59.059 45.4727C58.3835 45.4159 58.074 45.0358 58.305 44.3847L66.6207 17.3134C68.4032 11.5015 66.7253 8.28525 61.8265 7.85701C61.552 7.83079 61.273 7.81768 60.9854 7.81768C59.081 7.8228 57.2061 8.28903 55.5201 9.1767L55.568 9.61369C57.6774 9.79722 58.5447 11.5801 57.8169 14.0709L50.6606 37.5808C48.6427 44.1356 51.3405 48.3 57.8387 48.8725C58.7103 48.9453 59.582 48.9832 60.4537 48.9861C64.7832 49.0281 69.0613 48.0428 72.9386 46.1108C76.816 44.1787 80.1827 41.3547 82.7638 37.8692C85.7169 33.8212 87.4953 29.0329 87.9023 24.0342C87.9633 23.3438 87.9981 22.6577 88.0025 21.9673C88.0722 11.3835 81.4999 1.47701 66.2458 0.144205Z" fill="#5086FF"/>
<path d="M54.663 57.6838C53.6743 57.6838 52.7078 57.9778 51.8857 58.5285C51.0636 59.0793 50.4229 59.8621 50.0445 60.7779C49.6662 61.6938 49.5672 62.7016 49.7601 63.6739C49.953 64.6461 50.4291 65.5392 51.1282 66.2402C51.8273 66.9412 52.718 67.4185 53.6877 67.6119C54.6574 67.8053 55.6626 67.7061 56.576 67.3267C57.4895 66.9473 58.2702 66.3049 58.8195 65.4807C59.3688 64.6564 59.662 63.6873 59.662 62.696C59.6678 62.0362 59.5424 61.3818 59.2933 60.771C59.0441 60.1603 58.6761 59.6054 58.2108 59.1388C57.7454 58.6723 57.192 58.3033 56.5829 58.0534C55.9737 57.8036 55.3211 57.678 54.663 57.6838ZM61.0174 89.3522C59.322 94.194 57.1211 96.912 54.7502 96.912C53.1376 96.912 52.462 95.3826 52.9676 93.0054L56.4542 76.6096C57.3041 72.7904 55.6087 70.5792 51.7952 70.5792C51.3681 70.5809 50.9416 70.6101 50.5182 70.6666C50.8968 72.8903 50.9861 75.1539 50.7841 77.4006C50.2933 83.2532 48.0443 88.819 44.3338 93.3637C43.7062 98.7342 46.3299 102.012 51.3725 102.012C57.1341 102.012 60.6077 98.4415 63.3186 89.9465C63.6324 88.417 61.5273 87.9931 61.0174 89.3522ZM48.8141 71.0293C47.9424 71.2816 47.0961 71.6152 46.2863 72.0257L46.3691 72.4627C47.8945 72.4627 48.4045 73.6513 47.9774 75.858L45.1401 89.2385C47.3573 85.607 48.7003 81.5075 49.0626 77.2651C49.2438 75.1844 49.1603 73.089 48.8141 71.0293ZM48.8141 71.0293C47.9424 71.2816 47.0961 71.6152 46.2863 72.0257L46.3691 72.4627C47.8945 72.4627 48.4045 73.6513 47.9774 75.858L45.1401 89.2385C47.3573 85.607 48.7003 81.5075 49.0626 77.2651C49.2438 75.1844 49.1603 73.089 48.8141 71.0293Z" fill="#1E1E1E"/>
<path d="M86.5144 93.005C86.0045 95.3822 86.6844 96.9116 88.2926 96.9116C90.6679 96.9116 92.8688 94.1936 94.5642 89.3518C95.0741 87.9927 97.1792 88.4166 96.8523 89.9461C94.1371 98.4411 90.6504 102.011 84.9062 102.011C81.5154 102.011 79.2404 100.565 78.299 98.0172C76.4336 100.639 73.8927 102.011 70.8419 102.011C64.5006 102.011 60.5781 96.9116 60.5781 89.2687C60.5781 78.5626 67.6952 70.5788 77.3532 70.5788C79.3829 70.601 81.3368 71.3548 82.8578 72.7026C83.9604 71.3436 85.7386 70.5788 87.9439 70.5788C89.0316 70.5665 90.1152 70.7137 91.1603 71.0158L86.5144 93.005ZM69.9093 90.0335C69.9093 94.4514 71.3475 97.082 73.6356 97.082C75.6709 97.082 77.4491 94.9583 78.129 91.8382L80.744 79.4366C81.3367 76.2903 80.3082 74.1927 78.2031 74.1927C73.9756 74.149 69.9093 81.9623 69.9093 90.0203V90.0335Z" fill="#1E1E1E"/>
<path d="M102.366 93.0048C101.856 95.382 102.532 96.9115 104.144 96.9115C106.515 96.9115 108.716 94.1934 110.412 89.3516C110.848 87.9926 113.027 88.4165 112.7 89.9459C109.989 98.4409 106.433 102.011 100.754 102.011C95.2492 102.011 92.6211 98.1001 93.9766 91.8162L100.68 60.1304C101.115 57.9454 100.592 56.7306 99.0671 56.7306L98.9842 56.2936C100.687 55.4016 102.569 54.9085 104.489 54.8516C108.302 54.8516 109.998 57.1457 109.152 61.1354L102.366 93.0048Z" fill="#1E1E1E"/>
<path d="M110.156 88.4159C110.156 78.4788 117.526 70.5781 126.931 70.5781C134.811 70.5781 140.063 75.9312 140.063 84.1684C140.063 94.1098 132.693 102.011 123.288 102.011C115.408 102.011 110.156 96.6574 110.156 88.4159ZM130.915 81.3673C130.915 76.6085 129.642 73.9779 127.271 73.9779C123.288 73.9779 119.309 82.5559 119.309 91.2213C119.309 95.9801 120.577 98.6108 122.948 98.6108C126.931 98.6108 130.915 90.0196 130.915 81.3673Z" fill="#1E1E1E"/>
<path d="M146.636 113.224C146.63 113.545 146.691 113.864 146.814 114.161C146.937 114.457 147.119 114.725 147.35 114.948C147.58 115.171 147.854 115.344 148.154 115.457C148.454 115.569 148.774 115.618 149.094 115.601C152.314 115.601 154.938 111.695 156.463 104.559L157.396 100.058C155.844 101.334 153.895 102.026 151.887 102.011C145.533 102.011 141.637 96.9116 141.637 89.2687C141.637 78.5626 148.754 70.5788 158.412 70.5788C160.443 70.5999 162.398 71.3538 163.921 72.7026C165.023 71.3435 166.801 70.5788 169.002 70.5788C170.091 70.5667 171.176 70.7139 172.223 71.0158L165.446 102.872C163.411 112.814 156.803 119.014 148.501 119.014C142.992 119.014 139.266 115.868 139.266 111.284C139.266 107.46 142.059 104.572 145.803 104.572C149.447 104.572 151.469 107.46 150.462 110.86C148.331 110.248 146.636 111.271 146.636 113.224ZM150.959 90.0203C150.959 94.4382 152.397 97.0689 154.685 97.0689C156.633 97.0689 158.412 95.1156 159.092 92.0567L161.802 79.3142C162.395 76.1722 161.367 74.1359 159.262 74.1359C155.025 74.149 150.959 81.9623 150.959 90.0203Z" fill="#1E1E1E"/>
<path d="M176.713 75.8418C177.149 73.635 176.548 72.4464 175.105 72.4464L175.022 72.0094C176.724 71.1151 178.606 70.6205 180.527 70.563C184.34 70.563 186.036 72.7741 185.186 76.8512L181.799 92.8187C181.207 95.5367 182.052 97.1536 184 97.1536C186.288 97.1536 188.494 94.5316 189.339 90.6949L192.473 75.8374C192.909 73.6306 192.303 72.442 190.865 72.442L190.777 72.005C192.481 71.1113 194.364 70.6167 196.286 70.5586C200.1 70.5586 201.795 72.7697 200.945 76.8468L197.459 92.9847C196.953 95.3619 197.629 96.8914 199.237 96.8914C201.612 96.8914 203.813 94.1733 205.508 89.3315C206.018 87.9725 208.123 88.3964 207.797 89.9258C205.086 98.4208 201.612 101.991 195.85 101.991C192.037 101.991 189.666 100.208 188.986 96.9788C186.371 100.374 183.32 101.991 179.668 101.991C174.669 101.991 171.958 98.1674 173.131 92.6439L176.713 75.8418Z" fill="#1E1E1E"/>
<path d="M229.921 77.0315C229.921 83.1493 223.989 88.0785 214.584 90.1149C214.754 95.0441 217.199 97.6747 221.448 97.6747C225.697 97.6747 229.729 94.4498 232.544 88.935C233.224 87.659 235.255 88.498 234.662 89.9532C231.699 97.347 225.427 102.018 218.31 102.018C210.435 102.018 205.266 96.6653 205.266 88.4237C205.266 78.4867 212.636 70.586 222.041 70.586C227.04 70.5772 229.921 73.1248 229.921 77.0315ZM224.072 75.9303C224.072 74.7417 223.479 73.977 222.376 73.977C218.82 73.977 215.264 80.3482 214.671 87.3138C220.263 85.1026 224.072 80.6017 224.072 75.9303Z" fill="#1E1E1E"/>
<path d="M240.173 87.3968C236.446 84.5083 234.921 82.0437 234.921 78.6571C234.921 73.9857 239.41 70.5859 245.682 70.5859C251.186 70.5859 255 73.2079 255 76.9572C255.008 77.5344 254.899 78.1072 254.679 78.6409C254.46 79.1747 254.135 79.6582 253.724 80.0623C253.313 80.4664 252.824 80.7825 252.288 80.9917C251.751 81.2008 251.178 81.2986 250.602 81.279C248.654 81.279 247.211 80.1778 246.876 78.4779C247.891 78.3075 248.567 77.2893 248.567 76.1837C248.567 74.8247 247.551 73.8895 246.026 73.8895C244.248 73.8895 242.892 75.0782 242.892 76.695C242.892 78.3118 243.908 79.4961 247.381 82.0437C252.21 85.6139 254.163 88.5024 254.163 92.409C254.163 97.9325 248.907 102.023 241.79 102.023C235.182 102.023 230.523 98.623 230.523 93.6981C230.523 90.4688 232.132 87.4973 236.028 87.4973C239.336 87.4973 241.96 90.4688 240.861 93.2699C238.909 92.6756 237.131 93.8685 237.131 95.6514C237.131 97.3513 238.656 98.5399 240.774 98.5399C243.315 98.5399 245.263 96.84 245.263 94.4628C245.263 92.0856 244.156 90.4557 240.173 87.3968Z" fill="#1E1E1E"/>
<path d="M48.8093 71.0273C47.3101 62.1172 40.5983 54.5092 27.3926 53.3512C26.3031 53.2551 25.2135 53.207 24.1762 53.207C11.1492 53.207 0.924663 60.3037 0.0442859 70.3937C-0.391544 75.5545 2.41956 79.2164 7.14832 79.6272C7.43161 79.6534 7.71054 79.6665 7.98947 79.6665C12.0688 79.6665 15.2853 77.014 15.6165 73.2079C15.1697 73.2799 14.718 73.3165 14.2654 73.3171C14.0519 73.3171 13.8296 73.3171 13.6553 73.2909C10.7831 73.0418 9.03547 70.669 9.29697 67.4528C9.85483 61.0815 15.9739 56.598 23.6794 56.598C24.2605 56.598 24.8532 56.6243 25.4576 56.6767C34.7407 57.4939 39.8966 64.6823 38.9683 75.4278C37.9136 87.7245 29.2885 98.7147 21.0034 98.7147C20.7332 98.7147 20.4673 98.7147 20.1971 98.6798C19.5215 98.623 19.2165 98.2428 19.4431 97.5917L27.7587 70.4986C29.5413 64.6867 27.8633 61.4704 22.9646 61.0422C22.69 61.016 22.4111 61.0072 22.1235 61.0072C20.2136 61.0082 18.3324 61.473 16.6407 62.3619L16.6886 62.7989C18.7981 62.9824 19.6654 64.7653 18.9375 67.2561L11.7856 90.7791C9.76766 97.3339 12.4698 101.498 18.968 102.071C19.8397 102.144 20.7114 102.181 21.583 102.184C31.5505 102.184 40.2889 97.1372 45.1179 89.2234C47.3351 85.5919 48.6781 81.4924 49.0403 77.25C49.2262 75.1743 49.1486 73.0834 48.8093 71.0273Z" fill="#1E1E1E"/>
</g>
<defs>
<clipPath id="clip0_1_3022">
<rect width="255" height="119" fill="white"/>
</clipPath>
</defs>
</svg>
