<svg width="396" height="213" viewBox="0 0 396 213" fill="none" xmlns="http://www.w3.org/2000/svg">
<g opacity="0.06">
<path d="M306.273 201.688C299.831 188.056 299.147 172.763 309.123 172.763C313.17 172.763 315.564 174.424 316.761 178.261C322.462 195.96 332.495 201.975 344.864 201.975C361.509 201.975 363.448 192.867 363.448 187.598C363.448 180.896 357.519 177.574 342.242 173.507C321.55 167.55 302.226 157.469 302.226 135.245C302.226 113.021 323.659 101.05 348.171 101.05C362.935 101.05 377.47 105.346 386.021 111.818C392.462 125.221 393.147 140.515 383.171 140.515C379.124 140.515 376.501 138.625 375.304 134.787C369.604 116.859 359.115 110.844 347.943 110.844C337.682 110.844 333.92 116.343 333.92 123.503C333.92 132.095 341.786 137.594 350.85 139.999C368.008 144.524 395.883 151.226 395.883 177.345C395.883 201.745 369.946 212.514 344.465 212.514C328.732 212.514 314.937 207.702 306.387 201.745L306.273 201.688Z" fill="#F7F8FB"/>
<path d="M246.066 113.136L260.235 60.182C263.138 49.3365 257.639 45.8507 248.966 44.3032L251.379 35.2838L290.554 39.0552C298.684 39.9834 301.441 44.4557 300.079 49.5464L299.146 53.0324C297.665 58.5658 301.736 59.8911 306.096 56.6095C314.582 50.6957 324.075 46.5331 336.025 49.7273C350.288 53.5397 359.765 65.9747 355.989 80.0848C353.087 90.9302 343.133 97.697 330.247 94.2526C307.229 88.0997 329.679 66.8266 315.912 63.1466C306.275 60.5707 294.526 70.2966 286.427 100.564L280.608 122.31C277.262 134.816 280.254 139.292 292.011 143.205L289.598 152.225L224.507 134.826L226.92 125.806C237.906 127.972 242.734 125.587 246.08 113.081L246.066 113.136Z" fill="#F7F8FB"/>
<path d="M128.954 57.4743C128.954 18.2385 160.876 0.768555 190.404 0.768555C215.657 0.768555 236.121 13.4271 236.121 34.5056C236.121 55.5841 215.429 57.2452 194.452 58.9063L175.868 60.3382C171.821 60.5674 169.655 62.5148 169.655 68.0136C169.655 85.7126 188.694 93.6171 204.427 93.6171C212.75 93.6171 224.208 91.2114 232.758 81.4167L239.884 87.8892C235.38 97.2256 216.056 112.29 188.181 112.29C158.425 112.29 128.897 95.049 128.897 57.4743H128.954ZM175.868 51.0018L184.419 50.0281C200.836 48.367 204.199 44.0711 204.199 34.7347C204.199 23.2218 199.411 11.766 187.041 11.766C171.536 11.766 168.002 29.236 168.002 40.6917C168.002 47.6224 169.655 51.2309 175.868 51.0018V51.0018Z" fill="#F7F8FB"/>
<path d="M49.9968 110.089L59.7864 92.5345L31.8777 68.6371C18.4802 57.5574 13.7088 53.9756 2.78995 52.1395L0.694214 43.2764L58.8893 29.5359L60.985 38.399C51.1617 43.4258 55.3701 47.8468 67.6047 60.2016L73.5317 66.6887C87.9404 39.6857 87.5012 35.8462 74.6323 35.1768L72.5366 26.3136L114.477 16.411L116.573 25.2742C104.474 32.074 97.134 42.4 90.2419 54.6212L80.9467 71.2943L108.583 96.0212C121.481 107.219 126.752 110.683 137.618 112.296L139.766 121.382L81.8487 135.057L79.7003 125.971C89.3544 121.219 86.8713 115.92 72.9114 104.444L65.7162 98.7856C51.3074 125.789 52.463 128.694 65.6092 129.298L67.7577 138.384L25.8172 148.287L23.6688 139.2C35.7672 132.401 43.3294 122.022 50.0523 110.076L49.9968 110.089Z" fill="#F7F8FB"/>
</g>
</svg>
