<svg width="375" height="644" viewBox="0 0 375 644" fill="none" xmlns="http://www.w3.org/2000/svg">
<path d="M289.944 402.548L320.273 515.954C326.485 539.18 314.715 546.645 296.151 549.959L301.317 569.275L385.167 561.198C402.57 559.21 408.47 549.633 405.555 538.73L403.558 531.265C400.389 519.415 409.102 516.577 418.433 523.604C436.598 536.269 456.916 545.184 482.494 538.343C513.022 530.178 533.307 503.548 525.225 473.33C519.014 450.104 497.709 435.613 470.127 442.989C420.858 456.166 468.911 501.724 439.444 509.605C418.817 515.121 393.67 494.293 376.334 429.473L363.879 382.902C356.717 356.12 363.121 346.535 388.286 338.154L383.12 318.839L243.799 356.099L248.965 375.415C272.479 370.777 282.813 375.885 289.975 402.667L289.944 402.548Z" fill="white" fill-opacity="0.08"/>
<path d="M39.2627 521.748C39.2627 605.774 107.589 643.188 170.791 643.188C224.842 643.188 268.644 616.078 268.644 570.937C268.644 525.796 224.354 522.239 179.454 518.682L139.678 515.615C131.015 515.124 126.379 510.954 126.379 499.178C126.379 461.274 167.131 444.346 200.806 444.346C218.62 444.346 243.144 449.498 261.446 470.474L276.697 456.613C267.058 436.618 225.696 404.357 166.033 404.357C102.343 404.357 39.1406 441.28 39.1406 521.748H39.2627ZM139.678 535.61L157.98 537.695C193.119 541.252 200.318 550.452 200.318 570.447C200.318 595.103 190.069 619.636 163.592 619.636C130.405 619.636 122.841 582.223 122.841 557.689C122.841 542.847 126.379 535.119 139.678 535.61Z" fill="white" fill-opacity="0.08"/>
<path d="M-129.73 409.069L-108.775 446.666L-168.508 497.842C-197.182 521.569 -207.395 529.24 -230.765 533.171L-235.25 552.152L-110.69 581.584L-106.205 562.603C-127.231 551.837 -118.224 542.369 -92.0381 515.911L-79.3527 502.018C-48.5104 559.849 -49.4503 568.072 -76.9943 569.505L-81.4793 588.486L8.28958 609.697L12.7745 590.715C-13.1212 576.152 -28.8329 554.037 -43.5855 527.863L-63.4822 492.155L-4.33223 439.202C23.2737 415.223 34.5547 407.805 57.8122 404.351L62.4099 384.892L-61.5566 355.601L-66.1544 375.06C-45.4906 385.236 -50.8048 396.585 -80.6833 421.162L-96.0833 433.279C-126.926 375.448 -124.453 369.226 -96.3148 367.934L-91.717 348.475L-181.486 327.264L-186.084 346.723C-160.188 361.286 -144.001 383.513 -129.611 409.097L-129.73 409.069Z" fill="white" fill-opacity="0.08"/>
<path d="M289.944 166.639L320.273 53.2338C326.485 30.0076 314.715 22.5426 296.151 19.2285L301.317 -0.0871591L385.167 7.98955C402.57 9.97733 408.47 19.5549 405.555 30.457L403.558 37.9226C400.389 49.7727 409.102 52.611 418.433 45.5832C436.598 32.9183 456.916 24.004 482.494 30.8445C513.022 39.0091 533.307 65.6393 525.225 95.857C519.014 119.083 497.709 133.575 470.127 126.198C420.858 113.022 468.911 67.4637 439.444 59.5829C418.817 54.0663 393.67 74.8949 376.334 139.715L363.879 186.286C356.717 213.067 363.121 222.652 388.286 231.033L383.12 250.349L243.799 213.089L248.965 193.773C272.479 198.411 282.813 193.302 289.975 166.521L289.944 166.639Z" fill="#42C38D"/>
<path d="M39.2627 47.4391C39.2627 -36.5869 107.589 -74 170.791 -74C224.842 -74 268.644 -46.8909 268.644 -1.74986C268.644 43.3911 224.354 46.9484 179.454 50.5057L139.678 53.5724C131.015 54.063 126.379 58.2337 126.379 70.0096C126.379 107.913 167.131 124.841 200.806 124.841C218.62 124.841 243.144 119.689 261.446 98.7134L276.697 112.575C267.058 132.569 225.696 164.83 166.033 164.83C102.343 164.83 39.1406 127.908 39.1406 47.4391H39.2627ZM139.678 33.5778L157.98 31.4925C193.119 27.9352 200.318 18.7353 200.318 -1.25919C200.318 -25.915 190.069 -50.4482 163.592 -50.4482C130.405 -50.4482 122.841 -13.0351 122.841 11.498C122.841 26.3406 126.379 34.0685 139.678 33.5778Z" fill="#8364FF"/>
<path d="M-129.73 160.118L-108.775 122.522L-168.508 71.3453C-197.182 47.6181 -207.395 39.9476 -230.765 36.0164L-235.25 17.0352L-110.69 -12.3963L-106.205 6.58493C-127.231 17.351 -118.224 26.8188 -92.0381 53.2768L-79.3527 67.1693C-48.5104 9.33833 -49.4503 1.11554 -76.9943 -0.317021L-81.4793 -19.2982L8.28958 -40.509L12.7745 -21.5278C-13.1212 -6.96422 -28.8329 15.1505 -43.5855 41.3241L-63.4822 77.032L-4.33223 129.985C23.2737 153.965 34.5547 161.383 57.8122 164.836L62.4099 184.295L-61.5566 213.586L-66.1544 194.128C-45.4906 183.951 -50.8048 172.603 -80.6833 148.025L-96.0833 135.909C-126.926 193.74 -124.453 199.962 -96.3148 201.254L-91.717 220.713L-181.486 241.923L-186.084 222.465C-160.188 207.901 -144.001 185.674 -129.611 160.09L-129.73 160.118Z" fill="#5086FF"/>
</svg>
