<svg width="375" height="561" viewBox="0 0 375 561" fill="none" xmlns="http://www.w3.org/2000/svg">
<path d="M367.25 297.481L404.743 157.288C412.422 128.575 397.872 119.347 374.923 115.25L381.309 91.3718L484.965 101.356C506.479 103.814 513.773 115.654 510.169 129.131L507.701 138.36C503.783 153.009 514.555 156.518 526.09 147.83C548.545 132.174 573.663 121.154 605.282 129.61C643.021 139.703 668.098 172.624 658.107 209.979C650.428 238.692 624.091 256.606 589.994 247.487C529.087 231.198 588.491 174.879 552.064 165.137C526.564 158.317 495.477 184.065 474.047 264.197L458.65 321.768C449.795 354.875 457.712 366.725 488.822 377.085L482.436 400.964L310.205 354.902L316.591 331.024C345.66 336.757 358.435 330.442 367.289 297.334L367.25 297.481Z" fill="#F7F8FB"/>
<path d="M57.354 150.124C57.354 46.2504 141.82 0 219.951 0C286.769 0 340.918 33.5126 340.918 89.3164C340.918 145.12 286.166 149.518 230.66 153.915L181.489 157.706C170.78 158.313 165.048 163.469 165.048 178.026C165.048 224.883 215.426 245.81 257.056 245.81C279.077 245.81 309.394 239.441 332.019 213.51L350.873 230.646C338.957 255.363 287.825 295.245 214.068 295.245C135.334 295.245 57.2031 249.601 57.2031 150.124H57.354ZM181.489 132.989L204.114 130.411C247.553 126.013 256.452 114.64 256.452 89.923C256.452 59.4432 243.782 29.115 211.052 29.115C170.026 29.115 160.674 75.3654 160.674 105.694C160.674 124.042 165.048 133.595 181.489 132.989V132.989Z" fill="#F7F8FB"/>
<path d="M-151.555 289.42L-125.65 242.943L-199.493 179.678C-234.941 150.346 -247.565 140.864 -276.456 136.004L-282 112.539L-128.017 76.1556L-122.473 99.6204C-148.466 112.93 -137.331 124.634 -104.96 157.341L-89.2781 174.515C-51.1505 103.024 -52.3124 92.8591 -86.3626 91.0881L-91.9069 67.6234L19.0663 41.4023L24.6106 64.8671C-7.40198 82.8708 -26.8249 110.209 -45.0623 142.565L-69.6588 186.708L3.46306 252.169C37.5898 281.813 51.5355 290.983 80.2866 295.253L85.9704 319.308L-67.2784 355.518L-72.9622 331.463C-47.4173 318.883 -53.9869 304.853 -90.9229 274.471L-109.961 259.492C-148.088 330.983 -145.031 338.675 -110.247 340.272L-104.563 364.327L-215.536 390.548L-221.22 366.493C-189.207 348.49 -169.197 321.012 -151.408 289.385L-151.555 289.42Z" fill="#F7F8FB"/>
</svg>
