<svg width="1440" height="913" viewBox="0 0 1440 913" fill="none" xmlns="http://www.w3.org/2000/svg">
<path d="M1255.18 854.866C1221.09 782.685 1217.47 701.708 1270.26 701.708C1291.68 701.708 1304.35 710.504 1310.69 730.823C1340.85 824.537 1393.95 856.382 1459.41 856.382C1547.49 856.382 1557.75 808.16 1557.75 780.258C1557.75 744.774 1526.38 727.184 1445.53 705.651C1336.03 674.11 1233.76 620.732 1233.76 503.059C1233.76 385.386 1347.19 322 1476.9 322C1555.03 322 1631.96 344.746 1677.21 379.017C1711.3 449.985 1714.92 530.961 1662.13 530.961C1640.71 530.961 1626.83 520.953 1620.5 500.633C1590.33 405.706 1534.82 373.861 1475.7 373.861C1421.4 373.861 1401.49 402.976 1401.49 440.886C1401.49 486.379 1443.12 515.494 1491.08 528.231C1581.88 552.191 1729.4 587.675 1729.4 725.971C1729.4 855.169 1592.14 912.186 1457.3 912.186C1374.04 912.186 1301.03 886.71 1255.78 855.169L1255.18 854.866Z" fill="#F7F8FB"/>
<path d="M936.499 385.962L1011.49 105.576C1026.84 48.1507 997.744 29.6939 951.846 21.5001L964.618 -26.2564L1171.93 -6.28732C1214.96 -1.37269 1229.55 22.3072 1222.34 49.2618L1217.4 67.7198C1209.57 97.0183 1231.11 104.036 1254.18 86.6602C1299.09 55.3471 1349.33 33.3071 1412.56 50.2198C1488.04 70.406 1538.2 136.247 1518.21 210.958C1502.86 268.383 1450.18 304.212 1381.99 285.974C1260.17 253.396 1378.98 140.758 1306.13 121.273C1255.13 107.634 1192.95 159.131 1150.09 319.393L1119.3 434.536C1101.59 500.751 1117.42 524.449 1179.64 545.171L1166.87 592.927L822.41 500.804L835.183 453.047C893.32 464.515 918.869 451.883 936.578 385.669L936.499 385.962Z" fill="#F7F8FB"/>
<path d="M316.708 91.2487C316.708 -116.499 485.64 -209 641.902 -209C775.539 -209 883.836 -141.975 883.836 -30.3672C883.836 81.2404 774.332 90.0355 663.32 98.8307L564.978 106.413C543.559 107.626 532.096 117.937 532.096 147.052C532.096 240.766 632.852 282.619 716.111 282.619C760.154 282.619 820.788 269.881 866.038 218.02L903.746 252.291C879.915 301.726 777.651 381.489 630.137 381.489C472.668 381.489 316.406 290.201 316.406 91.2487H316.708ZM564.978 56.9778L610.227 51.8221C697.106 43.0269 714.904 20.2809 714.904 -29.154C714.904 -90.1136 689.565 -150.77 624.104 -150.77C542.051 -150.77 523.348 -58.2691 523.348 2.38718C523.348 39.0842 532.096 58.1909 564.978 56.9778Z" fill="#F7F8FB"/>
<path d="M-101.109 369.836L-49.2997 276.882L-196.985 150.352C-267.881 91.6882 -293.13 72.7235 -350.911 63.0037L-362 16.0742L-54.0346 -56.6927L-42.946 -9.76316C-94.931 16.8551 -72.6616 40.2635 -7.91977 105.679L23.4438 140.027C99.6991 -2.95558 97.3753 -23.2858 29.2748 -26.8277L18.1861 -73.7572L240.133 -126.199L251.221 -79.2698C187.196 -43.2624 148.35 11.4146 111.875 76.1268L62.6825 164.412L208.926 295.334C277.18 354.622 305.071 372.962 362.573 381.501L373.941 429.611L67.4432 502.031L56.0757 453.921C107.165 428.761 94.0262 400.703 20.1542 339.937L-17.9213 309.98C-94.1765 452.962 -88.0619 468.346 -18.4936 471.541L-7.126 519.651L-229.073 572.093L-240.44 523.983C-176.415 487.976 -136.395 433.021 -100.815 369.767L-101.109 369.836Z" fill="#F7F8FB"/>
</svg>
