<svg width="375" height="561" viewBox="0 0 375 561" fill="none" xmlns="http://www.w3.org/2000/svg">
<path d="M207.354 150.124C207.354 46.2504 291.82 0 369.951 0C436.769 0 490.918 33.5126 490.918 89.3164C490.918 145.12 436.166 149.518 380.66 153.915L331.489 157.706C320.78 158.313 315.048 163.469 315.048 178.026C315.048 224.883 365.426 245.81 407.056 245.81C429.077 245.81 459.394 239.441 482.019 213.51L500.873 230.646C488.957 255.363 437.825 295.245 364.068 295.245C285.334 295.245 207.203 249.601 207.203 150.124H207.354ZM331.489 132.989L354.114 130.411C397.553 126.013 406.452 114.64 406.452 89.923C406.452 59.4432 393.782 29.115 361.052 29.115C320.026 29.115 310.674 75.3654 310.674 105.694C310.674 124.042 315.048 133.595 331.489 132.989Z" fill="#F7F8FB"/>
<path d="M-1.55455 289.42L24.3502 242.943L-49.4926 179.678C-84.9405 150.346 -97.565 140.864 -126.456 136.004L-132 112.539L21.9827 76.1556L27.527 99.6204C1.53449 112.93 12.6692 124.634 45.0401 157.341L60.7219 174.515C98.8495 103.024 97.6876 92.8591 63.6374 91.0881L58.0931 67.6234L169.066 41.4023L174.611 64.8671C142.598 82.8708 123.175 110.209 104.938 142.565L80.3412 186.708L153.463 252.169C187.59 281.813 201.535 290.983 230.287 295.253L235.97 319.308L82.7216 355.518L77.0378 331.463C102.583 318.883 96.0131 304.853 59.0771 274.471L40.0393 259.492C1.91173 330.983 4.96903 338.675 39.7532 340.272L45.437 364.327L-65.5363 390.548L-71.2201 366.493C-39.2075 348.49 -19.1974 321.012 -1.40773 289.385L-1.55455 289.42Z" fill="#F7F8FB"/>
</svg>
