<svg width="1440" height="1122" viewBox="0 0 1440 1122" fill="none" xmlns="http://www.w3.org/2000/svg">
<path d="M1254.87 1063.97C1220.79 991.845 1217.17 910.928 1269.95 910.928C1291.37 910.928 1304.03 919.717 1310.37 940.022C1340.53 1033.67 1393.61 1065.49 1459.06 1065.49C1547.13 1065.49 1557.38 1017.3 1557.38 989.421C1557.38 953.963 1526.02 936.385 1445.19 914.868C1335.7 883.35 1233.46 830.011 1233.46 712.423C1233.46 594.836 1346.86 531.496 1476.55 531.496C1554.67 531.496 1631.58 554.226 1676.82 588.471C1710.9 659.388 1714.52 740.305 1661.74 740.305C1640.32 740.305 1626.45 730.304 1620.12 709.999C1589.96 615.141 1534.46 583.319 1475.35 583.319C1421.06 583.319 1401.15 612.413 1401.15 650.296C1401.15 695.755 1442.77 724.849 1490.73 737.577C1581.51 761.519 1729 796.977 1729 935.173C1729 1064.28 1591.77 1121.25 1456.95 1121.25C1373.7 1121.25 1300.72 1095.8 1255.47 1064.28L1254.87 1063.97Z" fill="#F7F8FB"/>
<path d="M936.249 595.413L1011.22 315.231C1026.58 257.848 997.481 239.405 951.592 231.217L964.362 183.495L1171.64 203.45C1214.65 208.361 1229.24 232.023 1222.03 258.958L1217.1 277.403C1209.26 306.68 1230.8 313.692 1253.87 296.33C1298.77 265.039 1349 243.015 1412.22 259.916C1487.69 280.087 1537.83 345.88 1517.85 420.537C1502.5 477.92 1449.83 513.723 1381.65 495.499C1259.86 462.944 1378.65 350.388 1305.81 330.917C1254.82 317.288 1192.66 368.748 1149.8 528.894L1119.01 643.953C1101.31 710.119 1117.14 733.8 1179.35 754.507L1166.58 802.228L822.181 710.172L834.951 662.45C893.077 673.909 918.622 661.287 936.327 595.121L936.249 595.413Z" fill="#F7F8FB"/>
<path d="M316.583 300.913C316.583 93.3163 485.483 0.882812 641.715 0.882812C775.327 0.882812 883.604 67.8593 883.604 179.386C883.604 290.912 774.12 299.701 663.129 308.489L564.805 316.066C543.391 317.278 531.93 327.582 531.93 356.676C531.93 450.322 632.667 492.144 715.91 492.144C759.945 492.144 820.568 479.416 865.809 427.592L903.51 461.838C879.683 511.237 777.438 590.942 629.952 590.942C472.514 590.942 316.281 499.721 316.281 300.913H316.583ZM564.805 266.667L610.046 261.515C696.909 252.726 714.704 229.997 714.704 180.598C714.704 119.683 689.369 59.0705 623.92 59.0705C541.883 59.0705 523.184 151.504 523.184 212.116C523.184 248.786 531.93 267.879 564.805 266.667Z" fill="#F7F8FB"/>
<path d="M-101.14 579.301L-49.3431 486.418L-197.008 359.977C-267.894 301.354 -293.14 282.403 -350.911 272.688L-362 225.793L-54.0899 153.092L-43.0014 199.987C-94.9765 226.583 -72.71 249.975 -7.97676 315.344L23.3828 349.668C99.6196 206.795 97.2954 186.48 29.2064 182.938L18.1179 136.043L240.024 83.6485L251.113 130.543C187.1 166.522 148.263 221.156 111.797 285.819L62.6157 374.036L208.839 504.866C277.083 564.112 304.971 582.44 362.464 590.975L373.831 639.049L67.3885 711.404L56.021 663.329C107.101 638.19 93.9631 610.151 20.1013 549.429L-17.9688 519.492C-94.2056 662.365 -88.0915 677.737 -18.5349 680.933L-7.16742 729.007L-229.074 781.402L-240.442 733.327C-176.429 697.349 -136.417 642.437 -100.847 579.231L-101.14 579.301Z" fill="#F7F8FB"/>
</svg>
