<svg width="375" height="812" viewBox="0 0 375 812" fill="none" xmlns="http://www.w3.org/2000/svg">
<g opacity="0.07">
<path d="M268.709 259.249C268.709 51.5008 437.641 -41 593.903 -41C727.54 -41 835.837 26.0252 835.837 137.633C835.837 249.24 726.333 258.036 615.321 266.831L516.979 274.413C495.56 275.626 484.097 285.937 484.097 315.052C484.097 408.766 584.853 450.619 668.112 450.619C712.155 450.619 772.789 437.881 818.039 386.02L855.747 420.291C831.916 469.726 729.651 549.489 582.138 549.489C424.669 549.489 268.407 458.201 268.407 259.249H268.709ZM516.979 224.978L562.228 219.822C649.107 211.027 666.905 188.281 666.905 138.846C666.905 77.8864 641.566 17.23 576.105 17.23C494.052 17.23 475.349 109.731 475.349 170.387C475.349 207.084 484.097 226.191 516.979 224.978V224.978Z" fill="black"/>
<path d="M-149.109 537.836L-97.2997 444.882L-244.985 318.352C-315.881 259.688 -341.13 240.723 -398.911 231.004L-410 184.074L-102.035 111.307L-90.946 158.237C-142.931 184.855 -120.662 208.263 -55.9198 273.679L-24.5562 308.027C51.6991 165.044 49.3752 144.714 -18.7252 141.172L-29.8139 94.2428L192.133 41.8007L203.221 88.7302C139.196 124.738 100.35 179.415 63.8755 244.127L14.6825 332.412L160.926 463.334C229.18 522.622 257.071 540.962 314.573 549.501L325.941 597.611L19.4432 670.031L8.07567 621.921C59.1653 596.761 46.0262 568.703 -27.8458 507.937L-65.9213 477.98C-142.177 620.962 -136.062 636.346 -66.4936 639.541L-55.126 687.651L-277.073 740.093L-288.44 691.983C-224.415 655.976 -184.395 601.021 -148.815 537.767L-149.109 537.836Z" fill="black"/>
</g>
</svg>
