<svg width="929" height="863" viewBox="0 0 929 863" fill="none" xmlns="http://www.w3.org/2000/svg">
<g opacity="0.07">
<path d="M846.499 581.571L921.487 303.76C936.845 246.862 907.744 228.575 861.846 220.457L874.618 173.139L1081.93 192.924C1124.96 197.794 1139.55 221.256 1132.34 247.963L1127.4 266.252C1119.57 295.281 1141.11 302.234 1164.18 285.018C1209.09 253.993 1259.33 232.155 1322.56 248.912C1398.04 268.913 1448.2 334.15 1428.21 408.174C1412.86 465.072 1360.18 500.572 1291.99 482.502C1170.17 450.223 1288.98 338.619 1216.13 319.313C1165.13 305.799 1102.95 356.823 1060.09 515.614L1029.3 629.699C1011.59 695.305 1027.42 718.786 1089.64 739.318L1076.87 786.635L732.41 695.358L745.183 648.04C803.32 659.402 828.869 646.887 846.578 581.28L846.499 581.571Z" fill="black"/>
<path d="M226.708 289.564C226.708 83.7247 395.64 -7.92651 551.902 -7.92651C685.539 -7.92651 793.836 58.4831 793.836 169.066C793.836 279.648 684.332 288.362 573.32 297.077L474.978 304.589C453.559 305.791 442.096 316.008 442.096 344.856C442.096 437.709 542.852 479.177 626.111 479.177C670.154 479.177 730.788 466.557 776.038 415.172L813.746 449.128C789.915 498.109 687.651 577.139 540.137 577.139C382.668 577.139 226.406 486.69 226.406 289.564H226.708ZM474.978 255.608L520.227 250.5C607.106 241.786 624.904 219.248 624.904 170.268C624.904 109.868 599.565 49.7687 534.104 49.7687C452.051 49.7687 433.348 141.42 433.348 201.519C433.348 237.879 442.096 256.81 474.978 255.608Z" fill="black"/>
<path d="M-191.109 565.593L-139.3 473.492L-286.985 348.125C-357.881 290 -383.13 271.209 -440.911 261.579L-452 215.08L-144.035 142.982L-132.946 189.48C-184.931 215.854 -162.662 239.047 -97.9198 303.862L-66.5561 337.894C9.69909 196.225 7.37527 176.082 -60.7252 172.572L-71.8138 126.074L150.133 74.1135L161.221 120.612C97.196 156.289 58.3502 210.463 21.8755 274.581L-27.3175 362.055L118.926 491.775C187.18 550.518 215.071 568.69 272.573 577.151L283.941 624.819L-22.5568 696.574L-33.9243 648.906C17.1653 623.977 4.02626 596.176 -69.8458 535.969L-107.921 506.287C-184.177 647.956 -178.062 663.198 -108.494 666.364L-97.126 714.032L-319.073 765.992L-330.44 718.324C-266.415 682.647 -226.395 628.198 -190.815 565.524L-191.109 565.593Z" fill="black"/>
</g>
</svg>
