<svg width="108" height="104" viewBox="0 0 108 104" fill="none" xmlns="http://www.w3.org/2000/svg">
<path fill-rule="evenodd" clip-rule="evenodd" d="M53.999 101.112C82.5532 101.112 105.701 77.0702 105.701 60.6671C105.701 44.264 82.5532 20.2227 53.999 20.2227C25.4448 20.2227 2.29687 44.2807 2.29687 60.6671C2.29687 77.0535 25.4448 101.112 53.999 101.112Z" stroke="#3E8DFF" stroke-width="2.29787" stroke-linejoin="round"/>
<path d="M53.9997 77.9987C63.5177 77.9987 71.2337 70.2383 71.2337 60.6654C71.2337 51.0925 63.5177 43.332 53.9997 43.332C44.4816 43.332 36.7656 51.0925 36.7656 60.6654C36.7656 70.2383 44.4816 77.9987 53.9997 77.9987Z" stroke="#3E8DFF" stroke-width="2.29787" stroke-linejoin="round"/>
<path d="M23.1641 15.2148L30.6164 25.6732" stroke="#3E8DFF" stroke-width="2.29787" stroke-linecap="round"/>
<path d="M87.3901 16.4961L79.9375 26.9547" stroke="#3E8DFF" stroke-width="2.29787" stroke-linecap="round"/>
<path d="M54.0234 2.89062V20.224" stroke="#3E8DFF" stroke-width="2.29787" stroke-linecap="round"/>
</svg>
