<svg width="222" height="138" viewBox="0 0 222 138" fill="none" xmlns="http://www.w3.org/2000/svg">
<path d="M214.253 84.6289V62.3856H220.126V84.6289H214.253ZM217.19 58.7822C216.3 58.7822 215.514 58.456 214.832 57.8035C214.15 57.1214 213.809 56.3206 213.809 55.4012C213.809 54.4819 214.15 53.6959 214.832 53.0435C215.514 52.3613 216.3 52.0203 217.19 52.0203C218.109 52.0203 218.895 52.3613 219.547 53.0435C220.229 53.6959 220.571 54.4819 220.571 55.4012C220.571 56.3206 220.229 57.1214 219.547 57.8035C218.895 58.456 218.109 58.7822 217.19 58.7822Z" fill="white"/>
<path d="M197.835 85.1639C196.144 85.1639 194.676 84.8821 193.43 84.3186C192.185 83.7551 191.221 82.9544 190.539 81.9164C189.857 80.8487 189.516 79.6179 189.516 78.224C189.516 76.8894 189.812 75.7031 190.405 74.6651C190.999 73.5974 191.918 72.7076 193.164 71.9959C194.409 71.2841 195.981 70.7799 197.879 70.4833L205.798 69.1932V73.6419L198.991 74.7985C197.835 75.0061 196.975 75.3768 196.411 75.9107C195.848 76.4445 195.566 77.1415 195.566 78.0015C195.566 78.832 195.877 79.4993 196.5 80.0034C197.152 80.478 197.953 80.7152 198.902 80.7152C200.118 80.7152 201.186 80.4631 202.105 79.959C203.054 79.4251 203.781 78.6985 204.285 77.7791C204.819 76.8597 205.086 75.8514 205.086 74.754V68.5259C205.086 67.4879 204.671 66.6278 203.84 65.9457C203.04 65.2339 201.972 64.878 200.637 64.878C199.392 64.878 198.279 65.2191 197.301 65.9012C196.352 66.5537 195.655 67.4286 195.21 68.5259L190.45 66.2126C190.924 64.9373 191.666 63.84 192.674 62.9206C193.712 61.9715 194.928 61.2301 196.322 60.6963C197.716 60.1624 199.229 59.8955 200.86 59.8955C202.847 59.8955 204.597 60.2662 206.109 61.0077C207.622 61.7195 208.793 62.7278 209.624 64.0328C210.484 65.308 210.914 66.8058 210.914 68.5259V84.63H205.397V80.4928L206.643 80.4038C206.02 81.4418 205.279 82.3167 204.419 83.0285C203.559 83.7107 202.58 84.2445 201.483 84.63C200.385 84.9859 199.169 85.1639 197.835 85.1639Z" fill="white"/>
<path d="M182.262 85.2981C181.283 85.2981 180.438 84.9422 179.726 84.2304C179.044 83.5186 178.703 82.6734 178.703 81.6947C178.703 80.7456 179.044 79.9152 179.726 79.2034C180.438 78.4916 181.283 78.1357 182.262 78.1357C183.241 78.1357 184.071 78.4916 184.753 79.2034C185.465 79.9152 185.821 80.7456 185.821 81.6947C185.821 82.6734 185.465 83.5186 184.753 84.2304C184.071 84.9422 183.241 85.2981 182.262 85.2981Z" fill="url(#paint0_linear_21_8622)"/>
<path d="M165.921 85.1641C163.43 85.1641 161.25 84.6006 159.382 83.4736C157.513 82.3466 156.06 80.8193 155.022 78.8915C153.984 76.9638 153.465 74.8284 153.465 72.4855C153.465 70.0535 153.984 67.9033 155.022 66.0349C156.09 64.1368 157.528 62.6391 159.337 61.5418C161.176 60.4444 163.222 59.8958 165.476 59.8958C167.374 59.8958 169.035 60.2072 170.459 60.83C171.912 61.4528 173.143 62.3129 174.151 63.4102C175.159 64.5075 175.931 65.768 176.464 67.1916C176.998 68.5855 177.265 70.098 177.265 71.7292C177.265 72.1444 177.236 72.5744 177.176 73.0193C177.147 73.4642 177.072 73.8497 176.954 74.1759H158.269V69.7273H173.662L170.904 71.8182C171.17 70.4539 171.096 69.2379 170.681 68.1703C170.296 67.1026 169.643 66.2573 168.724 65.6345C167.834 65.0117 166.752 64.7003 165.476 64.7003C164.26 64.7003 163.178 65.0117 162.229 65.6345C161.28 66.2277 160.553 67.1174 160.049 68.3037C159.574 69.4604 159.396 70.8691 159.515 72.5299C159.396 74.0128 159.589 75.3326 160.093 76.4892C160.627 77.6162 161.398 78.4911 162.407 79.114C163.445 79.7368 164.631 80.0482 165.966 80.0482C167.3 80.0482 168.427 79.7664 169.347 79.2029C170.296 78.6394 171.037 77.8832 171.571 76.9341L176.286 79.2474C175.812 80.4041 175.07 81.4273 174.062 82.317C173.054 83.2067 171.853 83.9037 170.459 84.4079C169.094 84.912 167.582 85.1641 165.921 85.1641Z" fill="white"/>
<path d="M145.203 84.6301V62.3869H151.075V84.6301H145.203ZM148.139 58.7834C147.249 58.7834 146.463 58.4572 145.781 57.8047C145.099 57.1226 144.758 56.3219 144.758 55.4025C144.758 54.4831 145.099 53.6971 145.781 53.0447C146.463 52.3625 147.249 52.0215 148.139 52.0215C149.058 52.0215 149.844 52.3625 150.497 53.0447C151.179 53.6971 151.52 54.4831 151.52 55.4025C151.52 56.3219 151.179 57.1226 150.497 57.8047C149.844 58.4572 149.058 58.7834 148.139 58.7834Z" fill="white"/>
<path d="M131.978 84.6304V65.6347H127.707V60.4297H131.978V59.629C131.978 57.7902 132.348 56.2332 133.09 54.9579C133.861 53.653 134.929 52.6594 136.293 51.9773C137.657 51.2952 139.274 50.9541 141.142 50.9541C141.498 50.9541 141.883 50.9838 142.299 51.0431C142.743 51.0727 143.114 51.1172 143.411 51.1765V56.2035C143.114 56.1442 142.832 56.1145 142.566 56.1145C142.328 56.0849 142.106 56.0701 141.898 56.0701C140.593 56.0701 139.585 56.3666 138.873 56.9598C138.161 57.5233 137.805 58.413 137.805 59.629V60.4297H143.188V65.6347H137.805V84.6304H131.978Z" fill="white"/>
<path d="M105.031 84.63V60.4293H110.503V65.1894L110.058 64.3442C110.622 62.8909 111.541 61.7936 112.816 61.0522C114.121 60.2811 115.634 59.8955 117.354 59.8955C119.133 59.8955 120.705 60.2811 122.07 61.0522C123.464 61.8233 124.546 62.9058 125.317 64.2997C126.088 65.6639 126.474 67.2506 126.474 69.0597V84.63H120.646V70.4388C120.646 69.3711 120.438 68.4518 120.023 67.6807C119.608 66.9096 119.03 66.3164 118.288 65.9012C117.576 65.4563 116.731 65.2339 115.753 65.2339C114.803 65.2339 113.958 65.4563 113.217 65.9012C112.475 66.3164 111.897 66.9096 111.482 67.6807C111.067 68.4518 110.859 69.3711 110.859 70.4388V84.63H105.031Z" fill="white"/>
<path d="M90.066 85.1639C87.6934 85.1639 85.5284 84.6152 83.571 83.5179C81.6432 82.4205 80.101 80.9228 78.9444 79.0247C77.8174 77.1266 77.2539 74.9616 77.2539 72.5297C77.2539 70.0978 77.8174 67.9328 78.9444 66.0347C80.101 64.1366 81.6432 62.6388 83.571 61.5415C85.4988 60.4442 87.6638 59.8955 90.066 59.8955C92.4387 59.8955 94.5888 60.4442 96.5166 61.5415C98.4443 62.6388 99.9717 64.1366 101.099 66.0347C102.255 67.9031 102.834 70.0681 102.834 72.5297C102.834 74.9616 102.255 77.1266 101.099 79.0247C99.9421 80.9228 98.3999 82.4205 96.4721 83.5179C94.5444 84.6152 92.409 85.1639 90.066 85.1639ZM90.066 79.8255C91.371 79.8255 92.5128 79.5141 93.4915 78.8913C94.4999 78.2685 95.2858 77.4084 95.8493 76.3111C96.4425 75.1841 96.739 73.9236 96.739 72.5297C96.739 71.1061 96.4425 69.8605 95.8493 68.7928C95.2858 67.6955 94.4999 66.8354 93.4915 66.2126C92.5128 65.5601 91.371 65.2339 90.066 65.2339C88.7314 65.2339 87.56 65.5601 86.5516 66.2126C85.5432 66.8354 84.7425 67.6955 84.1493 68.7928C83.5858 69.8605 83.3041 71.1061 83.3041 72.5297C83.3041 73.9236 83.5858 75.1841 84.1493 76.3111C84.7425 77.4084 85.5432 78.2685 86.5516 78.8913C87.56 79.5141 88.7314 79.8255 90.066 79.8255Z" fill="white"/>
<path d="M65.0482 85.1641C62.646 85.1641 60.481 84.6155 58.5532 83.5181C56.6551 82.3911 55.1574 80.8786 54.0601 78.9805C52.9627 77.0527 52.4141 74.8877 52.4141 72.4855C52.4141 70.0832 52.9627 67.933 54.0601 66.0349C55.1574 64.1368 56.6551 62.6391 58.5532 61.5418C60.481 60.4444 62.646 59.8958 65.0482 59.8958C66.7684 59.8958 68.3699 60.2072 69.8528 60.83C71.3357 61.4231 72.611 62.2535 73.6786 63.3212C74.776 64.3592 75.5619 65.6049 76.0364 67.0581L70.9205 69.2824C70.4756 68.0665 69.7193 67.0878 68.6517 66.3463C67.6136 65.6049 66.4125 65.2341 65.0482 65.2341C63.773 65.2341 62.6311 65.5455 61.6228 66.1684C60.6441 66.7912 59.873 67.6512 59.3095 68.7486C58.746 69.8459 58.4642 71.1064 58.4642 72.5299C58.4642 73.9535 58.746 75.214 59.3095 76.3113C59.873 77.4086 60.6441 78.2687 61.6228 78.8915C62.6311 79.5143 63.773 79.8257 65.0482 79.8257C66.4422 79.8257 67.6581 79.455 68.6961 78.7136C69.7342 77.9721 70.4756 76.9786 70.9205 75.733L76.0364 78.0463C75.5619 79.4105 74.7908 80.6413 73.7231 81.7387C72.6555 82.8063 71.3802 83.6516 69.8973 84.2744C68.4144 84.8676 66.7981 85.1641 65.0482 85.1641Z" fill="white"/>
<path fillRule="evenodd" clipRule="evenodd" d="M27.031 50.6233C27.0311 50.6233 27.0312 50.6234 27.0313 50.6234L24.0738 61.1778H24.0735L27.031 50.6233ZM24.2998 50.0654C24.0976 50.0381 23.8945 50.0137 23.6905 49.9922L18.0686 59.5596L17.1177 61.1694V61.1778H21.186L24.2998 50.0654ZM22.3694 79.8535H2.72705C5.79504 86.1479 11.9378 90.6674 19.2064 91.455L22.3694 79.8535ZM26.0567 91.0686C31.0951 89.9394 35.4484 86.9864 38.3784 82.9399L34.2974 75.8634L26.0567 91.0686ZM34.7793 74.9743L38.9201 82.1568C41.0805 78.8703 42.3316 74.9416 42.3316 70.7209C42.3316 68.1589 41.8678 65.7101 41.0241 63.4441C41.0036 63.4872 40.9819 63.5298 40.959 63.572L34.7793 74.9743ZM39.0705 59.5229C38.1647 58.1034 37.0918 56.8014 35.8797 55.6443L34.8935 59.4668H38.5145C38.7033 59.4668 38.8895 59.4859 39.0705 59.5229ZM11.9293 68.3101L11.0201 69.8616L10.0942 68.3268L4.36377 58.8178C8.12567 53.4127 14.3899 49.876 21.48 49.876C21.9054 49.876 22.3224 49.8927 22.7395 49.9177L11.9293 68.3101ZM15.5268 79.0028L14.5509 77.3763L3.84077 59.6095C1.80551 62.8292 0.629395 66.6411 0.629395 70.7283C0.629395 73.6645 1.2383 76.4671 2.33935 79.0028H15.5268Z" fill="url(#paint1_linear_21_8622)"/>
<path d="M21.4844 70.4162L27.824 47.792H35.0338L31.3046 62.2463H38.5144L21.4844 93.6688L27.824 70.4162H21.4844Z" fill="url(#paint2_linear_21_8622)"/>
<defs>
<linearGradient id="paint0_linear_21_8622" x1="178.703" y1="133.671" x2="186.679" y2="133.671" gradientUnits="userSpaceOnUse">
<stop stop-color="#466DF9"/>
<stop offset="1" stop-color="#1CFFC8"/>
</linearGradient>
<linearGradient id="paint1_linear_21_8622" x1="21.4805" y1="49.876" x2="21.4805" y2="91.455" gradientUnits="userSpaceOnUse">
<stop stop-color="#A678FE"/>
<stop offset="1" stop-color="#5E0EF7"/>
</linearGradient>
<linearGradient id="paint2_linear_21_8622" x1="21.4844" y1="403.508" x2="40.5667" y2="403.508" gradientUnits="userSpaceOnUse">
<stop stop-color="#466DF9"/>
<stop offset="1" stop-color="#1CFFC8"/>
</linearGradient>
</defs>
</svg>
