<svg width="88" height="72" viewBox="0 0 88 72" fill="none" xmlns="http://www.w3.org/2000/svg">
<rect width="88" height="72" rx="36" fill="#8364FF"/>
<path d="M44 30C47.866 30 51 26.866 51 23C51 19.134 47.866 16 44 16C40.134 16 37 19.134 37 23C37 26.866 40.134 30 44 30Z" stroke="white" stroke-width="3" stroke-linecap="round" stroke-linejoin="round"/>
<path d="M24 53C24 44.1634 32.0589 37 42 37" stroke="white" stroke-width="3" stroke-linecap="round" stroke-linejoin="round"/>
<path d="M61 43H47V53H61V43Z" stroke="white" stroke-width="3" stroke-linecap="round" stroke-linejoin="round"/>
<path d="M57 43V40C57 38.3431 55.6569 37 54 37C52.3431 37 51 38.3431 51 40V43" stroke="white" stroke-width="3" stroke-linecap="round" stroke-linejoin="round"/>
</svg>
