<svg width="92" height="46" viewBox="0 0 92 46" fill="none" xmlns="http://www.w3.org/2000/svg">
<g clip-path="url(#clip0_1_8843)">
<path d="M92 0H0V46H92V0Z" fill="white"/>
<path d="M24.5395 25.4969L25.9992 23.8999L23.6686 20.7058C22.54 19.2135 22.1291 18.7202 21.0312 18.2578V17.2773H27.4651V18.2578C26.312 18.5414 26.6432 19.1087 27.6184 20.7058L28.0784 21.532C30.2558 19.0594 30.3049 18.6462 28.9739 18.2578V17.2773H33.6107V18.2578C32.1755 18.6709 31.1512 19.5712 30.127 20.6811L28.7408 22.198L31.0225 25.4723C32.0958 26.9645 32.5619 27.4578 33.6598 27.8956V28.9007H27.2566V27.8956C28.3851 27.6366 28.2563 27.02 27.0787 25.4723L26.4654 24.7015C24.2881 27.1741 24.3371 27.5071 25.6987 27.8956V28.9007H21.0619V27.8956C22.4971 27.4824 23.5459 26.5822 24.5456 25.4969H24.5395Z" fill="#3E8DFF"/>
<path d="M34.303 23.1553C34.303 18.9315 37.7377 17.0508 40.9147 17.0508C43.6318 17.0508 45.8337 18.4135 45.8337 20.6827C45.8337 22.9519 43.6073 23.1307 41.3502 23.3095L39.3507 23.4637C38.9153 23.4883 38.6822 23.698 38.6822 24.2899C38.6822 26.1953 40.7307 27.0462 42.4235 27.0462C43.319 27.0462 44.5518 26.7872 45.4718 25.7328L46.2385 26.4296C45.7539 27.4347 43.6747 29.0564 40.6755 29.0564C37.4739 29.0564 34.2969 27.2004 34.2969 23.1553H34.303ZM39.3507 22.4586L40.2707 22.3537C42.0371 22.1749 42.399 21.7124 42.399 20.7074C42.399 19.4679 41.8838 18.2347 40.5529 18.2347C38.8846 18.2347 38.5043 20.1154 38.5043 21.3486C38.5043 22.0947 38.6822 22.4832 39.3507 22.4586Z" fill="#3E8DFF"/>
<path d="M49.1376 26.0405V20.1394C49.1376 18.9308 48.4691 18.7212 47.5245 18.8013V17.7963L51.7013 17.0995C52.5723 16.97 52.9832 17.3584 52.9832 17.9257V18.3142C52.9832 18.9308 53.4432 18.9555 53.8051 18.493C54.5227 17.6421 55.3936 16.9453 56.7245 16.9453C58.3131 16.9453 59.644 17.9751 59.644 19.5475C59.644 20.756 58.7976 21.7365 57.3624 21.7365C54.7987 21.7365 56.5405 18.9 55.0072 18.9C53.9339 18.9 52.9832 20.2381 52.9832 23.611V26.0343C52.9832 27.4279 53.4187 27.8102 54.7496 27.8904V28.8954H47.5V27.8904C48.7021 27.8102 49.1376 27.4279 49.1376 26.0343V26.0405Z" fill="#3E8DFF"/>
<path d="M61.3323 27.8966C60.6392 26.429 60.5656 24.7826 61.6389 24.7826C62.0744 24.7826 62.332 24.9614 62.4608 25.3746C63.0741 27.2799 64.1536 27.9274 65.4845 27.9274C67.2755 27.9274 67.484 26.9469 67.484 26.3797C67.484 25.6582 66.8461 25.3006 65.2024 24.8628C62.976 24.2215 60.8968 23.1362 60.8968 20.7437C60.8968 18.3512 63.2029 17.0625 65.8403 17.0625C67.4288 17.0625 68.9928 17.525 69.9128 18.2217C70.6059 19.6646 70.6795 21.311 69.6061 21.311C69.1707 21.311 68.8885 21.1075 68.7597 20.6944C68.1464 18.7644 67.0179 18.1169 65.8157 18.1169C64.7117 18.1169 64.3069 18.7089 64.3069 19.4797C64.3069 20.4046 65.1533 20.9965 66.1285 21.2555C67.9747 21.7427 70.9739 22.4641 70.9739 25.2759C70.9739 27.9027 68.1832 29.062 65.4416 29.062C63.7488 29.062 62.2645 28.544 61.3445 27.9027L61.3323 27.8966Z" fill="#3E8DFF"/>
</g>
<defs>
<clipPath id="clip0_1_8843">
<rect width="92" height="46" fill="white"/>
</clipPath>
</defs>
</svg>
